<svg width="323" height="118" viewBox="0 0 323 118" fill="none" xmlns="http://www.w3.org/2000/svg">
<path d="M27.404 105.93C22.8573 105.93 18.662 105.186 14.818 103.698C11.0153 102.169 7.998 100.143 5.766 97.622C3.534 95.1007 2.418 92.3933 2.418 89.5C2.418 86.5653 3.534 83.8373 5.766 81.316C7.998 78.7533 11.0153 76.728 14.818 75.24C18.662 73.7107 22.8573 72.946 27.404 72.946C30.6693 72.946 33.7693 73.3593 36.704 74.186C39.6387 74.9713 42.2427 76.0873 44.516 77.534L45.074 74H52.328V105H45.074L44.578 101.342C42.2633 102.789 39.6387 103.925 36.704 104.752C33.7693 105.537 30.6693 105.93 27.404 105.93ZM10.354 89.438C10.354 91.1327 11.1393 92.6827 12.71 94.088C14.2807 95.452 16.368 96.5473 18.972 97.374C21.576 98.1593 24.3867 98.552 27.404 98.552C30.4213 98.552 33.232 98.1593 35.836 97.374C38.44 96.5473 40.5273 95.452 42.098 94.088C43.6687 92.6827 44.454 91.1327 44.454 89.438C44.454 87.9087 43.648 86.4413 42.036 85.036C40.4653 83.6307 38.3573 82.494 35.712 81.626C33.108 80.758 30.3387 80.324 27.404 80.324C24.428 80.324 21.6173 80.758 18.972 81.626C16.368 82.494 14.2807 83.6307 12.71 85.036C11.1393 86.4413 10.354 87.9087 10.354 89.438ZM57.9322 74H109.268V105H101.456V81.378H65.8062V105H57.9322V74ZM140.05 73.07C144.556 73.07 148.71 73.8347 152.512 75.364C156.356 76.852 159.394 78.8567 161.626 81.378C163.858 83.8993 164.974 86.6067 164.974 89.5C164.974 92.4347 163.858 95.1833 161.626 97.746C159.394 100.267 156.356 102.293 152.512 103.822C148.71 105.31 144.556 106.054 140.05 106.054C136.785 106.054 133.685 105.661 130.75 104.876C127.816 104.091 125.212 102.975 122.938 101.528V117.4H115.064V74H122.318L122.814 77.658C125.129 76.2113 127.754 75.0953 130.688 74.31C133.664 73.4833 136.785 73.07 140.05 73.07ZM123 89.562C123 91.2153 123.786 92.7447 125.356 94.15C126.927 95.514 129.014 96.6093 131.618 97.436C134.222 98.2627 137.033 98.676 140.05 98.676C143.026 98.676 145.816 98.2627 148.42 97.436C151.066 96.6093 153.174 95.514 154.744 94.15C156.315 92.7447 157.1 91.2153 157.1 89.562C157.1 87.95 156.315 86.4413 154.744 85.036C153.174 83.6307 151.066 82.5147 148.42 81.688C145.816 80.8613 143.026 80.448 140.05 80.448C137.074 80.448 134.264 80.8613 131.618 81.688C129.014 82.5147 126.927 83.6307 125.356 85.036C123.786 86.4413 123 87.95 123 89.562ZM194.568 105.93C190.063 105.93 185.888 105.186 182.044 103.698C178.241 102.21 175.224 100.205 172.992 97.684C170.76 95.1627 169.644 92.4553 169.644 89.562C169.644 86.6273 170.76 83.8993 172.992 81.378C175.224 78.8567 178.241 76.852 182.044 75.364C185.888 73.8347 190.063 73.07 194.568 73.07C199.073 73.07 203.227 73.814 207.03 75.302C210.833 76.79 213.85 78.7947 216.082 81.316C218.355 83.8373 219.492 86.5653 219.492 89.5C219.492 90.6573 219.409 91.6493 219.244 92.476L178.572 92.538C179.729 94.522 181.879 96.0513 185.02 97.126C188.161 98.2007 191.344 98.738 194.568 98.738C197.751 98.738 200.665 98.49 203.31 97.994C205.955 97.498 208.332 96.6507 210.44 95.452L216.392 99.854C214.408 101.797 211.391 103.305 207.34 104.38C203.289 105.413 199.032 105.93 194.568 105.93ZM210.812 86.586C209.696 84.5607 207.547 83.0107 204.364 81.936C201.223 80.82 197.957 80.262 194.568 80.262C191.303 80.262 188.099 80.82 184.958 81.936C181.817 83.0107 179.667 84.54 178.51 86.524L210.812 86.586ZM222.526 98.366C223.6 99.0687 224.592 99.42 225.502 99.42C227.486 99.42 228.85 97.8287 229.594 94.646C230.338 91.422 230.71 87.268 230.71 82.184C230.71 79.208 230.648 76.48 230.524 74L280.992 73.938V105H272.932V81.316H238.584C238.625 81.7293 238.646 82.494 238.646 83.61C238.646 86.834 238.315 90.1407 237.654 93.53C237.034 96.9193 235.876 99.8747 234.182 102.396C232.528 104.876 230.255 106.116 227.362 106.116C225.956 106.116 224.344 105.744 222.526 105V98.366ZM285.526 94.708C285.526 93.5507 285.795 92.414 286.332 91.298C286.911 90.1407 287.717 89.1073 288.75 88.198C286.56 86.586 285.464 84.602 285.464 82.246C285.464 80.758 285.898 79.394 286.766 78.154C287.634 76.8727 288.833 75.86 290.362 75.116C291.892 74.372 293.566 74 295.384 74H318.386V104.938H310.388V92.6H297.182C296.066 92.6 295.095 92.9307 294.268 93.592C293.483 94.2533 293.09 95.204 293.09 96.444V104.938H285.526V94.708ZM293.524 83.238C293.524 84.602 294.413 85.284 296.19 85.284H310.388V81.378H296.19C295.446 81.378 294.806 81.5433 294.268 81.874C293.772 82.1633 293.524 82.618 293.524 83.238Z" fill="#0D0802"/>
<path d="M34.0854 51.9397C13.4632 51.9397 0 40.2721 0 26.7085C0 13.2907 13.4632 1.62311 34.0854 1.62311C54.6008 1.62311 68.1709 13.2907 68.1709 26.7085C68.1709 40.2721 54.6008 51.9397 34.0854 51.9397ZM12.7153 26.7085C12.7153 35.1675 20.1948 43.6994 34.0854 43.6994C47.8692 43.6994 55.4556 35.1675 55.4556 26.7085C55.4556 18.3953 47.8692 9.86336 34.0854 9.86336C20.1948 9.86336 12.7153 18.3953 12.7153 26.7085Z" fill="#0D0802"/>
<path d="M104.989 50.3166V37.8501H70.6055V29.6643L102.556 0H117.155V29.6643H132.284V37.8501H117.155V50.3166H104.989ZM84.1473 29.6643H104.989V10.2886L84.1473 29.6643Z" fill="#0D0802"/>
<path d="M231.294 51.9396C210.672 51.9396 197.209 40.272 197.209 26.7084C197.209 13.2907 210.672 1.62305 231.294 1.62305C251.81 1.62305 265.38 13.2907 265.38 26.7084C265.38 40.272 251.81 51.9396 231.294 51.9396ZM209.924 26.7084C209.924 35.1674 217.404 43.6994 231.294 43.6994C245.078 43.6994 252.665 35.1674 252.665 26.7084C252.665 18.3952 245.078 9.8633 231.294 9.8633C217.404 9.8633 209.924 18.3952 209.924 26.7084Z" fill="#0D0802"/>
<path d="M295.812 51.9396C281.369 51.9396 268.625 44.0222 268.625 33.3669C268.625 29.4452 270.218 25.5974 273.51 22.1936L293.37 1.62305H306.751L293.582 15.0161C294.325 14.9421 295.069 14.9421 295.812 14.9421C309.724 14.9421 322.999 22.7116 322.999 33.3669C322.999 44.0222 309.724 51.9396 295.812 51.9396ZM281.263 33.3669C281.263 39.9524 289.015 43.5782 295.812 43.5782C302.609 43.5782 310.362 39.9524 310.362 33.3669C310.362 26.7813 302.609 23.3036 295.812 23.3036C289.015 23.3036 281.263 26.7813 281.263 33.3669Z" fill="#0D0802"/>
<path d="M137.152 26.7814V24.3467H190.715V26.7814H137.152Z" fill="#0D0802"/>
</svg>
