<svg width="155" height="37" viewBox="0 0 155 37" fill="none" xmlns="http://www.w3.org/2000/svg">
<g clip-path="url(#clip0_101_144)">
<path fill-rule="evenodd" clip-rule="evenodd" d="M147.962 33.8747V25.1954C145.98 26.2465 143.875 26.7721 141.647 26.7721C140.606 26.7721 139.758 26.4397 139.118 25.7751C138.471 25.1104 138.155 24.2603 138.155 23.2169C138.155 22.1735 138.471 21.3234 139.118 20.6819C139.758 20.0404 140.606 19.7158 141.647 19.7158C143.39 19.7158 144.878 19.0898 146.111 17.8455C147.345 16.6089 147.969 15.1095 147.969 13.3551C147.969 11.6007 147.353 10.1168 146.111 8.89569C144.878 7.66683 143.39 7.05627 141.647 7.05627C139.905 7.05627 138.44 7.66683 137.214 8.88796C135.996 10.1091 135.387 11.593 135.387 13.3397V33.867C135.387 34.9104 135.055 35.7605 134.4 36.4097C133.737 37.0512 132.881 37.3758 131.84 37.3758C130.799 37.3758 129.951 37.0512 129.311 36.4097C128.664 35.7605 128.348 34.9181 128.348 33.8747V13.3474C128.348 9.57581 129.628 6.40706 132.179 3.84887C134.739 1.28296 137.9 0 141.647 0C145.394 0 148.571 1.28296 151.146 3.84887C153.713 6.41479 155.001 9.58354 155.001 13.3474V33.8747C155.001 34.9181 154.677 35.7682 154.037 36.4097C153.397 37.0512 152.557 37.3758 151.508 37.3758C150.46 37.3758 149.619 37.0512 148.949 36.4097C148.285 35.7605 147.962 34.9181 147.962 33.867V33.8747Z" fill="#FEFEFE"/>
<path fill-rule="evenodd" clip-rule="evenodd" d="M98.8016 19.7158C100.544 19.7158 102.032 19.0898 103.266 17.8455C104.499 16.6089 105.116 15.1095 105.116 13.3551C105.116 11.6007 104.499 10.1168 103.266 8.89569C102.032 7.66683 100.544 7.05627 98.8016 7.05627C97.0592 7.05627 95.5943 7.66683 94.3762 8.88796C93.158 10.1091 92.5489 11.593 92.5489 13.3474V33.8747C92.5489 34.9181 92.2174 35.7682 91.562 36.4174C90.899 37.0589 90.0509 37.3835 89.0101 37.3835C87.9692 37.3835 87.1674 37.0512 86.5043 36.3865C85.8413 35.7296 85.5098 34.8872 85.5098 33.8747V13.3474C85.5098 9.57581 86.7896 6.40706 89.3416 3.84887C91.9013 1.28296 95.0546 0 98.8094 0C102.564 0 105.733 1.28296 108.308 3.84887C110.883 6.41479 112.171 9.58354 112.171 13.3551C112.171 17.1267 110.883 20.3109 108.308 22.8923C105.733 25.4737 102.572 26.7721 98.8094 26.7721C97.7685 26.7721 96.9281 26.4397 96.2805 25.7751C95.6406 25.1104 95.3168 24.2603 95.3168 23.2169C95.3168 22.1735 95.6406 21.3234 96.2805 20.6819C96.9281 20.0404 97.7685 19.7158 98.8094 19.7158H98.8016Z" fill="#FEFEFE"/>
<path fill-rule="evenodd" clip-rule="evenodd" d="M67.986 26.0765C67.986 29.253 66.9066 31.9271 64.7478 34.1066C62.589 36.2861 59.9291 37.3835 56.7681 37.3835C53.607 37.3835 50.8931 36.3015 48.7343 34.1452C46.5756 31.9812 45.4962 29.2994 45.4962 26.092V25.5741C45.4962 24.5308 45.82 23.6883 46.4599 23.0391C47.1075 22.3899 47.9479 22.0731 48.9965 22.0731C50.045 22.0731 50.8931 22.3899 51.5485 23.0391C52.2038 23.6883 52.5353 24.5308 52.5353 25.5741V26.092C52.5353 27.2744 52.9439 28.2792 53.7612 29.1061C54.5784 29.9254 55.5807 30.335 56.7604 30.335C57.94 30.335 58.9345 29.9254 59.7364 29.1061C60.5382 28.2869 60.9314 27.2822 60.9314 26.092V21.0761C59.613 21.6325 58.2175 21.9108 56.7604 21.9108C53.5607 21.9108 50.8854 20.8287 48.7266 18.6647C46.5679 16.5007 45.4885 13.8111 45.4885 10.5883V3.50881C45.4885 2.46544 45.8123 1.61529 46.4522 0.966083C47.1153 0.324604 47.9556 0 49.0042 0C50.0527 0 50.9008 0.324604 51.5562 0.973811C52.2115 1.62302 52.543 2.46544 52.543 3.51654V10.6037C52.543 11.7862 52.9517 12.7987 53.7689 13.6179C54.5862 14.4371 55.5884 14.8545 56.7681 14.8545C57.9477 14.8545 58.9423 14.4449 59.7441 13.6256C60.5459 12.8064 60.9391 11.8017 60.9391 10.6192V3.52427C60.9391 2.50409 61.2784 1.66166 61.9568 1.00473C62.6353 0.332332 63.4911 0 64.4934 0C65.4957 0 66.3823 0.324604 67.0222 0.966083C67.6622 1.61529 67.986 2.45771 67.986 3.50881V26.0765Z" fill="#FEFEFE"/>
<path fill-rule="evenodd" clip-rule="evenodd" d="M19.614 33.8747V25.1954C17.6326 26.2465 15.5278 26.7721 13.2996 26.7721C12.251 26.7721 11.4107 26.4397 10.7707 25.7751C10.1231 25.1104 9.807 24.2603 9.807 23.2169C9.807 22.1735 10.1231 21.3234 10.7707 20.6819C11.4184 20.0404 12.251 19.7158 13.2996 19.7158C15.042 19.7158 16.53 19.0898 17.7559 17.8455C18.9895 16.6089 19.6063 15.1095 19.6063 13.3551C19.6063 11.6007 18.9895 10.1168 17.7559 8.89569C16.5223 7.66683 15.0343 7.05627 13.2996 7.05627C11.5649 7.05627 10.0846 7.66683 8.86639 8.88796C7.64823 10.1091 7.03915 11.593 7.03915 13.3397V33.867C7.03915 34.9104 6.70762 35.7605 6.04457 36.4097C5.38923 37.0512 4.53343 37.3758 3.49259 37.3758C2.45175 37.3758 1.60366 37.0512 0.963739 36.4097C0.323816 35.7605 0 34.9181 0 33.8747V13.3474C0 9.58354 1.27984 6.41479 3.83953 3.84887C6.39151 1.28296 9.54487 0 13.2996 0C17.0543 0 20.2231 1.28296 22.7905 3.84887C25.3579 6.41479 26.6454 9.58354 26.6454 13.3474V33.8747C26.6454 34.9181 26.3216 35.7682 25.6817 36.4097C25.0341 37.0512 24.1937 37.3758 23.1529 37.3758C22.112 37.3758 21.2639 37.0512 20.6009 36.4097C19.9378 35.7605 19.614 34.9181 19.614 33.867V33.8747Z" fill="#FEFEFE"/>
</g>
<defs>
<clipPath id="clip0_101_144">
<rect width="155" height="37" fill="white"/>
</clipPath>
</defs>
</svg>
