<svg width="311" height="310" viewBox="0 0 311 310" fill="none" xmlns="http://www.w3.org/2000/svg">
<path d="M299.334 154.179C299.334 233.718 234.855 298.197 155.316 298.197C75.7767 298.197 11.2977 233.718 11.2977 154.179C11.2977 74.6404 75.7767 10.1613 155.316 10.1613C234.855 10.1613 299.334 74.6404 299.334 154.179Z" fill="#F9F1EF"/>
<path d="M294.261 160.166L308.262 160.761L308.493 155.339L310.012 155.404L309.484 167.831L307.965 167.767L308.195 162.345L294.194 161.75L294.261 160.166Z" fill="#121212"/>
<path d="M293.753 168.763L309.154 170.792L307.886 180.418L306.378 180.22L307.439 172.166L302.113 171.464L301.221 178.234L299.713 178.036L300.605 171.265L295.054 170.534L293.993 178.588L292.485 178.389L293.753 168.763Z" fill="#121212"/>
<path d="M291.825 181.709L307.001 185.027L306.662 186.576L292.972 183.584L291.396 190.792L289.91 190.467L291.825 181.709Z" fill="#121212"/>
<path d="M289.566 191.583L304.412 196.155L301.555 205.434L300.101 204.986L302.492 197.223L297.357 195.642L295.348 202.168L293.894 201.72L295.904 195.194L290.553 193.546L288.162 201.31L286.708 200.862L289.566 191.583Z" fill="#121212"/>
<path d="M283.037 209.218C283.463 208.211 284.022 207.378 284.715 206.718C285.408 206.059 286.199 205.581 287.089 205.286C287.977 204.998 288.94 204.898 289.981 204.986C291.027 205.078 292.117 205.363 293.25 205.842C294.747 206.475 295.942 207.285 296.837 208.273C297.735 209.269 298.286 210.385 298.49 211.619C298.694 212.853 298.508 214.153 297.931 215.517C297.286 217.041 296.405 218.128 295.286 218.779C294.171 219.44 292.934 219.706 291.576 219.576L291.84 217.954C292.846 218.013 293.762 217.795 294.588 217.301C295.411 216.814 296.046 216.04 296.495 214.98C296.975 213.864 297.117 212.826 296.92 211.869C296.731 210.914 296.259 210.055 295.504 209.29C294.754 208.536 293.784 207.903 292.594 207.392C291.405 206.881 290.278 206.619 289.213 206.606C288.153 206.603 287.206 206.866 286.373 207.396C285.546 207.929 284.893 208.753 284.413 209.87C283.979 210.897 283.819 211.829 283.933 212.666C284.048 213.503 284.403 214.25 284.999 214.909C285.592 215.573 286.386 216.143 287.38 216.618L288.775 213.32L290.027 213.849L287.985 218.678C287.824 218.633 287.657 218.575 287.485 218.502C287.317 218.438 287.196 218.391 287.123 218.361C285.832 217.814 284.774 217.094 283.95 216.198C283.133 215.306 282.627 214.268 282.432 213.085C282.241 211.911 282.443 210.622 283.037 209.218Z" fill="#121212"/>
<path d="M279.585 217.65L293.187 225.153L290.29 230.405C290.217 230.537 290.129 230.682 290.026 230.839C289.926 231.005 289.813 231.165 289.688 231.317C289.188 231.97 288.608 232.434 287.946 232.71C287.288 232.996 286.596 233.103 285.872 233.032C285.144 232.967 284.424 232.738 283.712 232.345C282.686 231.779 281.944 231.017 281.487 230.058C281.03 229.1 280.982 228.063 281.343 226.948L281.495 226.404L283.986 221.888L278.819 219.038L279.585 217.65ZM275.041 225.887L282.056 226.257L281.832 227.871L274.16 227.483L275.041 225.887ZM285.308 222.618L283.198 226.444C283.135 226.557 283.069 226.693 282.998 226.851C282.927 227.009 282.867 227.169 282.819 227.331C282.663 227.853 282.645 228.34 282.765 228.792C282.881 229.251 283.095 229.66 283.406 230.02C283.713 230.387 284.077 230.686 284.499 230.919C284.921 231.152 285.369 231.3 285.843 231.365C286.319 231.439 286.783 231.403 287.233 231.257C287.679 231.117 288.082 230.842 288.439 230.432C288.551 230.304 288.651 230.167 288.741 230.019C288.837 229.875 288.916 229.746 288.979 229.633L291.089 225.807L285.308 222.618Z" fill="#121212"/>
<path d="M273.449 228.657L283.206 241.877L282.012 243.609L266.184 239.202L267.121 237.843L282.067 241.97L281.712 242.486L272.513 230.016L273.449 228.657ZM275.197 232.757L276.423 233.601L271.869 240.21L270.643 239.366L275.197 232.757Z" fill="#121212"/>
<path d="M265.232 240.508L276.986 250.666L276.033 251.768L262.157 247.845L268.069 260.983L267.103 262.101L255.358 251.95L256.345 250.808L265.413 258.645L259.956 246.613L260.626 245.838L273.314 249.503L264.238 241.659L265.232 240.508Z" fill="#121212"/>
<path d="M238.263 266.69L246.589 277.962L250.954 274.738L251.858 275.962L241.853 283.352L240.949 282.128L245.314 278.904L236.988 267.633L238.263 266.69Z" fill="#121212"/>
<path d="M231.2 271.711L239.297 284.968L231.011 290.029L230.218 288.731L237.151 284.497L234.351 279.912L228.523 283.471L227.73 282.173L233.558 278.614L230.639 273.836L223.707 278.07L222.914 276.772L231.2 271.711Z" fill="#121212"/>
<path d="M220.05 278.252L226.994 292.148L225.575 292.857L219.311 280.321L212.711 283.62L212.031 282.259L220.05 278.252Z" fill="#121212"/>
<path d="M210.998 282.663L216.781 297.08L207.769 300.695L207.203 299.283L214.743 296.259L212.743 291.273L206.405 293.815L205.838 292.403L212.176 289.861L210.092 284.665L202.553 287.689L201.986 286.277L210.998 282.663Z" fill="#121212"/>
<path d="M193.145 288.671C194.196 288.369 195.195 288.28 196.144 288.404C197.093 288.528 197.961 288.843 198.751 289.35C199.533 289.858 200.216 290.545 200.801 291.409C201.389 292.281 201.852 293.308 202.192 294.49C202.641 296.052 202.762 297.491 202.557 298.807C202.346 300.132 201.825 301.262 200.994 302.197C200.163 303.132 199.035 303.804 197.611 304.213C196.021 304.67 194.621 304.668 193.412 304.207C192.197 303.756 191.213 302.961 190.459 301.823L191.886 301.009C192.473 301.828 193.219 302.403 194.122 302.735C195.019 303.068 196.02 303.076 197.126 302.758C198.296 302.43 199.192 301.888 199.813 301.133C200.436 300.385 200.808 299.478 200.928 298.411C201.043 297.353 200.925 296.201 200.574 294.954C200.224 293.708 199.719 292.667 199.06 291.831C198.395 291.005 197.595 290.434 196.659 290.119C195.725 289.811 194.673 289.822 193.503 290.15C192.432 290.458 191.607 290.92 191.028 291.535C190.449 292.151 190.091 292.897 189.954 293.774C189.81 294.654 189.866 295.629 190.121 296.701L193.563 295.712L193.939 297.018L188.9 298.466C188.833 298.313 188.774 298.147 188.723 297.967C188.666 297.796 188.627 297.673 188.605 297.597C188.218 296.249 188.113 294.973 188.291 293.769C188.471 292.573 188.96 291.527 189.758 290.632C190.551 289.745 191.68 289.092 193.145 288.671Z" fill="#121212"/>
<path d="M184.343 291.303L187.02 306.605L181.111 307.638C180.963 307.664 180.795 307.686 180.608 307.704C180.416 307.731 180.221 307.743 180.023 307.741C179.202 307.761 178.476 307.599 177.847 307.257C177.212 306.922 176.695 306.451 176.296 305.841C175.89 305.233 175.617 304.529 175.477 303.728C175.275 302.574 175.405 301.518 175.865 300.561C176.326 299.605 177.104 298.917 178.199 298.499L178.718 298.277L183.798 297.389L182.781 291.576L184.343 291.303ZM175.077 292.923L179.184 298.623L177.786 299.459L173.281 293.238L175.077 292.923ZM184.058 298.876L179.754 299.629C179.627 299.651 179.479 299.684 179.312 299.728C179.144 299.772 178.982 299.826 178.825 299.89C178.321 300.095 177.93 300.386 177.653 300.763C177.368 301.142 177.183 301.565 177.097 302.032C177.004 302.501 176.999 302.973 177.082 303.448C177.165 303.922 177.33 304.364 177.577 304.774C177.818 305.192 178.136 305.53 178.532 305.79C178.921 306.05 179.387 306.191 179.931 306.213C180.1 306.22 180.271 306.212 180.442 306.189C180.614 306.174 180.764 306.155 180.892 306.133L185.196 305.38L184.058 298.876Z" fill="#121212"/>
<path d="M172.041 293.399L167.903 309.3L165.806 309.462L159.274 294.386L160.92 294.259L167.115 308.473L166.491 308.522L170.395 293.526L172.041 293.399ZM169.954 297.336L170.069 298.821L162.067 299.439L161.952 297.955L169.954 297.336Z" fill="#121212"/>
<path d="M157.007 294.477L156.408 310L154.952 309.944L149.355 296.654L142.782 309.474L141.305 309.417L141.904 293.905L143.413 293.963L142.951 305.939L148.944 294.166L149.968 294.205L155.024 306.406L155.487 294.418L157.007 294.477Z" fill="#121212"/>
<path d="M119.821 289.821L116.258 303.374L121.506 304.754L121.12 306.225L109.09 303.062L109.477 301.591L114.725 302.971L118.287 289.418L119.821 289.821Z" fill="#121212"/>
<path d="M111.489 287.441L106.196 302.046L97.0678 298.738L97.5861 297.308L105.223 300.076L107.054 295.025L100.634 292.698L101.152 291.268L107.572 293.595L109.48 288.331L101.843 285.563L102.361 284.133L111.489 287.441Z" fill="#121212"/>
<path d="M99.4714 282.829L92.996 296.949L91.5545 296.288L97.3959 283.55L90.6886 280.474L91.3227 279.092L99.4714 282.829Z" fill="#121212"/>
<path d="M90.3594 278.521L82.7059 292.039L74.2569 287.256L75.0063 285.932L82.0753 289.934L84.7221 285.259L78.7797 281.895L79.5291 280.571L85.4715 283.935L88.23 279.063L81.161 275.061L81.9104 273.737L90.3594 278.521Z" fill="#121212"/>
<path d="M74.551 268.358C75.4444 268.988 76.1397 269.711 76.637 270.529C77.1343 271.346 77.4326 272.221 77.5318 273.153C77.6251 274.081 77.518 275.044 77.2104 276.042C76.8987 277.045 76.3885 278.05 75.6797 279.055C74.7428 280.383 73.697 281.379 72.5422 282.043C71.3774 282.709 70.1703 283.01 68.9208 282.948C67.6714 282.885 66.4413 282.426 65.2306 281.573C63.8789 280.619 63.0037 279.527 62.605 278.295C62.1964 277.065 62.1997 275.8 62.615 274.5L64.1435 275.103C63.8726 276.074 63.8908 277.015 64.198 277.927C64.4994 278.835 65.1203 279.62 66.0606 280.283C67.0497 280.99 68.033 281.349 69.0104 281.361C69.9837 281.378 70.9238 281.1 71.8309 280.525C72.7279 279.952 73.5524 279.138 74.3044 278.085C75.0564 277.031 75.5518 275.985 75.7906 274.948C76.0193 273.912 75.9633 272.931 75.6225 272.004C75.2775 271.084 74.6105 270.27 73.6214 269.563C72.7105 268.921 71.8338 268.567 70.9915 268.501C70.1492 268.435 69.3431 268.623 68.5733 269.066C67.7975 269.504 67.072 270.159 66.3966 271.029L69.3234 273.093L68.54 274.204L64.2556 271.182C64.3333 271.034 64.426 270.884 64.5338 270.731C64.6315 270.58 64.7032 270.472 64.7488 270.408C65.5571 269.262 66.4861 268.381 67.5359 267.766C68.5815 267.157 69.7031 266.883 70.9007 266.945C72.0883 267.008 73.3051 267.479 74.551 268.358Z" fill="#121212"/>
<path d="M66.9816 263.12L56.7386 274.799L52.2292 270.844C52.1156 270.744 51.9933 270.628 51.8622 270.493C51.721 270.36 51.5892 270.216 51.4669 270.061C50.9365 269.433 50.6075 268.766 50.4797 268.061C50.3419 267.357 50.3853 266.658 50.61 265.966C50.8293 265.269 51.2069 264.614 51.7428 264.003C52.5158 263.122 53.4193 262.561 54.4533 262.32C55.4874 262.079 56.5105 262.254 57.5226 262.845L58.0216 263.111L61.8984 266.511L65.7894 262.074L66.9816 263.12ZM59.9092 256.917L58.0443 263.69L56.5166 263.125L58.5386 255.715L59.9092 256.917ZM60.9026 267.646L57.6178 264.765C57.5205 264.68 57.4022 264.586 57.263 264.483C57.1237 264.38 56.9801 264.287 56.832 264.205C56.356 263.941 55.8842 263.819 55.4167 263.839C54.9438 263.855 54.4981 263.976 54.0797 264.202C53.656 264.423 53.2852 264.715 52.9675 265.078C52.6498 265.44 52.4088 265.845 52.2445 266.295C52.0702 266.744 52.006 267.205 52.0522 267.675C52.0929 268.142 52.2754 268.594 52.5996 269.031C52.7003 269.167 52.8131 269.295 52.9382 269.414C53.0584 269.539 53.1672 269.644 53.2646 269.729L56.5493 272.61L60.9026 267.646Z" fill="#121212"/>
<path d="M57.6077 254.832L42.612 261.547L41.174 260.011L48.854 245.486L49.9823 246.691L42.7636 260.414L42.3358 259.958L56.4794 253.628L57.6077 254.832ZM53.2301 255.666L52.1435 256.684L46.6568 250.826L47.7433 249.808L53.2301 255.666Z" fill="#121212"/>
<path d="M47.8019 244.305L35.3742 253.625L34.5004 252.46L41.2882 239.737L27.1927 242.717L26.306 241.534L38.725 232.22L39.6312 233.428L30.0429 240.619L42.9603 237.849L43.5752 238.669L37.2923 250.285L46.8892 243.088L47.8019 244.305Z" fill="#121212"/>
<path d="M28.0579 212.57L15.2768 218.316L17.5019 223.266L16.1146 223.889L11.0141 212.545L12.4014 211.921L14.6265 216.87L27.4076 211.124L28.0579 212.57Z" fill="#121212"/>
<path d="M24.6834 204.681L10.0005 209.754L6.82992 200.577L8.26762 200.081L10.9203 207.759L15.9982 206.004L13.7682 199.55L15.2059 199.053L17.4359 205.507L22.7278 203.679L20.0751 196.001L21.5128 195.504L24.6834 204.681Z" fill="#121212"/>
<path d="M20.6915 192.452L5.63784 196.287L5.24634 194.75L18.826 191.29L17.0044 184.14L18.4784 183.764L20.6915 192.452Z" fill="#121212"/>
<path d="M18.2851 182.589L2.96289 185.148L1.36321 175.572L2.86352 175.321L4.20191 183.333L9.50085 182.448L8.37574 175.713L9.87604 175.462L11.0011 182.198L16.5235 181.275L15.1851 173.263L16.6854 173.012L18.2851 182.589Z" fill="#121212"/>
<path d="M16.2347 164.023C16.3063 165.114 16.1807 166.11 15.8579 167.01C15.535 167.911 15.0422 168.693 14.3795 169.356C13.7163 170.012 12.9001 170.535 11.9309 170.923C10.9546 171.311 9.85287 171.546 8.6257 171.626C7.00382 171.733 5.57168 171.546 4.32927 171.065C3.07922 170.578 2.08584 169.829 1.34914 168.818C0.612441 167.806 0.195542 166.562 0.0984435 165.083C-0.00996765 163.433 0.289418 162.065 0.996599 160.981C1.69613 159.89 2.68194 159.097 3.95401 158.603L4.44617 160.171C3.52104 160.57 2.80045 161.176 2.28442 161.988C1.76791 162.793 1.54737 163.77 1.62279 164.918C1.69527 166.132 2.0342 167.122 2.63958 167.889C3.23778 168.657 4.04549 169.213 5.0627 169.557C6.07227 169.895 7.22317 170.025 8.5154 169.947C9.80764 169.869 10.9321 169.597 11.8889 169.131C12.838 168.658 13.5659 167.997 14.0724 167.149C14.5717 166.302 14.7851 165.272 14.7126 164.059C14.6396 162.946 14.3639 162.042 13.8857 161.345C13.4076 160.649 12.7543 160.14 11.926 159.82C11.0973 159.492 10.1323 159.339 9.03099 159.361L9.26572 162.935L7.90937 163.024L7.56576 157.793C7.7294 157.76 7.90452 157.738 8.0911 157.726C8.27005 157.707 8.39898 157.695 8.47793 157.69C9.87733 157.598 11.1461 157.767 12.2843 158.196C13.4153 158.627 14.3334 159.327 15.0385 160.297C15.736 161.26 16.1348 162.502 16.2347 164.023Z" fill="#121212"/>
<path d="M15.5205 154.21L0 153.551L0.254546 147.558C0.260955 147.407 0.275313 147.239 0.297619 147.052C0.313045 146.859 0.342843 146.666 0.38701 146.473C0.543651 145.666 0.856623 144.992 1.32593 144.451C1.78835 143.902 2.35979 143.497 3.04024 143.238C3.721 142.972 4.46736 142.856 5.27931 142.891C6.45054 142.941 7.45415 143.293 8.29015 143.947C9.12616 144.602 9.63112 145.509 9.80503 146.668L9.91102 147.223L9.69218 152.375L15.5878 152.625L15.5205 154.21ZM15.9197 144.811L9.47373 147.604L8.95627 146.06L15.9971 142.99L15.9197 144.811ZM8.18324 152.311L8.36866 147.946C8.37415 147.816 8.37338 147.665 8.36633 147.492C8.35929 147.319 8.34131 147.149 8.3124 146.982C8.22002 146.446 8.01933 146.002 7.71033 145.65C7.40164 145.292 7.02805 145.02 6.58957 144.836C6.1514 144.645 5.6916 144.539 5.21018 144.518C4.72876 144.498 4.26163 144.564 3.80881 144.718C3.34911 144.864 2.95026 145.103 2.61227 145.434C2.27458 145.758 2.03696 146.183 1.8994 146.71C1.85646 146.874 1.82773 147.042 1.81322 147.214C1.79152 147.386 1.77793 147.536 1.77243 147.666L1.58702 152.031L8.18324 152.311Z" fill="#121212"/>
<path d="M16.0706 141.879L1.42488 134.432L1.71567 132.349L17.8407 129.197L17.6126 130.832L2.40091 133.839L2.4874 133.219L16.2988 140.244L16.0706 141.879ZM12.6714 138.997L11.1969 138.792L12.3064 130.843L13.7808 131.048L12.6714 138.997Z" fill="#121212"/>
<path d="M18.1476 127.265L3.10853 123.373L3.47343 121.963L17.6507 119.325L6.52504 110.172L6.89534 108.741L21.9239 112.631L21.5455 114.093L9.94248 111.09L20.1693 119.453L19.9126 120.446L6.9152 122.787L18.5287 125.793L18.1476 127.265Z" fill="#121212"/>
<path d="M30.4919 92.2014L18.0268 85.7986L15.5474 90.6254L14.1944 89.9304L19.8776 78.8662L21.2307 79.5612L18.7513 84.388L31.2165 90.7908L30.4919 92.2014Z" fill="#121212"/>
<path d="M34.8022 84.1627L21.6958 75.8235L26.9078 67.6319L28.1911 68.4485L23.8304 75.3021L28.3631 78.1861L32.0288 72.4247L33.3122 73.2412L29.6464 79.0026L34.3702 82.0082L38.7309 75.1546L40.0142 75.9712L34.8022 84.1627Z" fill="#121212"/>
<path d="M41.6626 73.7128L29.269 64.3469L30.2251 63.0817L41.4051 71.5305L45.8539 65.6436L47.0675 66.5607L41.6626 73.7128Z" fill="#121212"/>
<path d="M48.0589 65.4129L36.4922 55.0431L42.9733 47.8139L44.1059 48.8293L38.6834 54.8777L42.6835 58.4639L47.2419 53.3794L48.3745 54.3948L43.8161 59.4793L47.9849 63.2167L53.4075 57.1683L54.54 58.1837L48.0589 65.4129Z" fill="#121212"/>
<path d="M60.9476 52.5023C60.1416 53.2408 59.2864 53.766 58.382 54.0778C57.4776 54.3895 56.5593 54.4945 55.6272 54.3928C54.7003 54.2862 53.7823 53.9763 52.8732 53.4633C51.9592 52.9449 51.0867 52.2324 50.2558 51.3257C49.1577 50.1273 48.4073 48.8933 48.0046 47.6235C47.6023 46.3436 47.5649 45.0999 47.8925 43.8925C48.2201 42.6852 48.93 41.581 50.0222 40.5801C51.2418 39.4625 52.4957 38.8402 53.784 38.7132C55.0727 38.576 56.3079 38.8487 57.4896 39.5315L56.5749 40.8965C55.6843 40.425 54.7608 40.2421 53.8043 40.348C52.8531 40.4491 51.9533 40.8883 51.1049 41.6657C50.204 42.4816 49.6436 43.3657 49.4239 44.3182C49.1993 45.2654 49.2712 46.2433 49.6395 47.252C50.0083 48.2505 50.6273 49.2294 51.4966 50.1887C52.3659 51.1479 53.2818 51.8547 54.2444 52.309C55.2075 52.7532 56.1781 52.9075 57.1563 52.7721C58.1296 52.6313 59.0667 52.153 59.9676 51.3371C60.7895 50.584 61.3224 49.8029 61.5664 48.9941C61.8104 48.1852 61.7981 47.3575 61.5297 46.5109C61.2665 45.6596 60.7817 44.8112 60.0754 43.966L57.4349 46.3857L56.5166 45.3836L60.3819 41.8414C60.5096 41.9488 60.6366 42.0714 60.7629 42.2093C60.8897 42.337 60.9798 42.43 61.0333 42.4883C61.9808 43.5223 62.6431 44.6176 63.0202 45.7743C63.3924 46.9256 63.421 48.0798 63.1058 49.2368C62.7911 50.3837 62.0716 51.4722 60.9476 52.5023Z" fill="#121212"/>
<path d="M67.8693 45.9985L58.6396 33.5031L63.4643 29.9395C63.5857 29.8497 63.726 29.7551 63.8849 29.6556C64.0454 29.546 64.2144 29.448 64.3919 29.3615C65.1183 28.977 65.8395 28.7974 66.5557 28.8228C67.2733 28.8381 67.9465 29.0293 68.5753 29.3964C69.2099 29.7592 69.7686 30.2675 70.2515 30.9211C70.948 31.8641 71.3038 32.8664 71.3191 33.9281C71.3344 34.9897 70.9454 35.9521 70.1523 36.8151L69.7867 37.2461L65.6389 40.3098L69.1449 45.0563L67.8693 45.9985ZM75.436 40.4094L69.2156 37.1448L70.093 35.7725L76.9024 39.3262L75.436 40.4094ZM64.7416 39.095L68.2559 36.4991C68.36 36.4222 68.4772 36.3267 68.6075 36.2126C68.7378 36.0985 68.8588 35.9778 68.9705 35.8506C69.3302 35.4418 69.5499 35.0069 69.6295 34.5457C69.7149 34.0803 69.6916 33.6191 69.5598 33.1622C69.4337 32.701 69.2275 32.2766 68.9412 31.889C68.6549 31.5014 68.3099 31.1795 67.9061 30.9234C67.5038 30.6573 67.0677 30.4966 66.5978 30.4413C66.1336 30.3819 65.6533 30.4639 65.1568 30.6876C65.0024 30.7569 64.8537 30.84 64.7105 30.9368C64.5632 31.0277 64.4374 31.1117 64.3333 31.1886L60.819 33.7845L64.7416 39.095Z" fill="#121212"/>
<path d="M77.4604 38.8914L74.0478 22.8195L75.8511 21.7362L88.4373 32.2974L87.0224 33.1474L75.1229 23.2056L75.6593 22.8834L78.8753 38.0415L77.4604 38.8914ZM77.5654 34.4363L76.7988 33.1601L83.679 29.0271L84.4456 30.3033L77.5654 34.4363Z" fill="#121212"/>
<path d="M90.368 31.1657L83.9452 17.0212L85.2712 16.419L96.2323 25.7897L96.361 11.3833L97.7067 10.7723L104.125 24.907L102.75 25.5314L97.7945 14.6185L97.7153 27.8294L96.7822 28.2531L86.7932 19.6141L91.753 30.5368L90.368 31.1657Z" fill="#121212"/>
<path d="M125.64 18.6455L122.805 4.92196L117.491 6.01995L117.183 4.53032L129.364 2.01347L129.672 3.5031L124.358 4.60108L127.193 18.3246L125.64 18.6455Z" fill="#121212"/>
<path d="M133.606 17.0871L131.814 1.65634L141.458 0.53618L141.633 2.04711L133.564 2.98432L134.184 8.3208L140.967 7.53295L141.143 9.04388L134.36 9.83173L135.006 15.3932L143.075 14.456L143.25 15.967L133.606 17.0871Z" fill="#121212"/>
<path d="M147.307 15.7263L146.827 0.199207L148.412 0.15025L148.845 14.157L156.22 13.9292L156.267 15.4496L147.307 15.7263Z" fill="#121212"/>
<path d="M157.94 15.5119L158.779 0L168.474 0.524239L168.392 2.04311L160.28 1.6045L159.99 6.96902L166.809 7.33773L166.727 8.8566L159.908 8.48789L159.606 14.0786L167.717 14.5172L167.635 16.0361L157.94 15.5119Z" fill="#121212"/>
<path d="M176.457 17.527C175.376 17.3593 174.432 17.0198 173.623 16.5086C172.815 15.9973 172.159 15.346 171.656 14.5546C171.16 13.7644 170.828 12.8541 170.661 11.8237C170.494 10.7862 170.505 9.65982 170.694 8.44456C170.943 6.83843 171.438 5.48143 172.178 4.37355C172.926 3.25967 173.873 2.45335 175.02 1.95461C176.168 1.45587 177.473 1.32014 178.937 1.54743C180.572 1.80119 181.841 2.39128 182.746 3.31769C183.658 4.2381 184.217 5.37291 184.422 6.72213L182.785 6.86096C182.597 5.87101 182.162 5.03573 181.482 4.35514C180.809 3.67565 179.903 3.24763 178.766 3.0711C177.566 2.87753 176.526 2.99257 175.645 3.41622C174.765 3.83277 174.047 4.49996 173.489 5.4178C172.94 6.32965 172.563 7.42463 172.357 8.70274C172.151 9.98086 172.172 11.1376 172.419 12.173C172.674 13.2024 173.16 14.0567 173.877 14.7357C174.595 15.4076 175.554 15.8403 176.754 16.0339C177.855 16.2049 178.798 16.1329 179.582 15.8179C180.366 15.503 181.005 14.9762 181.498 14.2376C181.998 13.5001 182.357 12.5916 182.576 11.512L179.037 10.9625L179.245 9.61931L184.426 10.4236C184.422 10.5904 184.406 10.7662 184.377 10.951C184.357 11.1297 184.34 11.2582 184.328 11.3364C184.113 12.7222 183.672 13.9237 183.004 14.9409C182.338 15.951 181.455 16.6945 180.355 17.1715C179.263 17.6424 177.963 17.7609 176.457 17.527Z" fill="#121212"/>
<path d="M184.907 18.6509L188.856 3.62672L194.657 5.15159C194.803 5.18999 194.965 5.23991 195.142 5.30136C195.328 5.35768 195.51 5.42791 195.689 5.51206C196.444 5.83691 197.036 6.28627 197.465 6.86013C197.903 7.42886 198.176 8.07323 198.284 8.79324C198.399 9.51508 198.354 10.269 198.147 11.055C197.849 12.1887 197.291 13.0943 196.474 13.7718C195.656 14.4492 194.662 14.7495 193.493 14.6725L192.928 14.6579L187.941 13.3469L186.44 19.054L184.907 18.6509ZM194.005 21.0424L192.649 14.1495L194.268 13.9728L195.768 21.5059L194.005 21.0424ZM188.325 11.8863L192.55 12.997C192.675 13.0299 192.823 13.0613 192.994 13.0913C193.164 13.1213 193.334 13.1399 193.503 13.1472C194.047 13.1712 194.524 13.0697 194.933 12.8426C195.349 12.6173 195.694 12.3101 195.967 11.9209C196.248 11.5336 196.449 11.1069 196.572 10.6408C196.694 10.1748 196.729 9.70424 196.675 9.22911C196.63 8.74885 196.482 8.30834 196.23 7.90758C195.986 7.50864 195.621 7.18588 195.135 6.93929C194.984 6.86246 194.826 6.79863 194.661 6.74779C194.498 6.69 194.354 6.64465 194.229 6.61173L190.003 5.501L188.325 11.8863Z" fill="#121212"/>
<path d="M196.988 21.8131L207.407 9.10933L209.38 9.84095L208.994 26.2666L207.446 25.6926L207.777 10.1901L208.364 10.4077L198.535 22.3872L196.988 21.8131ZM200.532 19.1124L201.05 17.7166L208.575 20.508L208.058 21.9038L200.532 19.1124Z" fill="#121212"/>
<path d="M211.263 27.1488L218.309 13.3044L219.607 13.965L219.123 28.3775L230.462 19.4898L231.779 20.1602L224.737 33.995L223.391 33.3099L228.828 22.6286L218.454 30.8091L217.541 30.3442L218.06 17.1478L212.618 27.8388L211.263 27.1488Z" fill="#121212"/>
<path d="M242.979 46.8377L251.909 36.0377L247.727 32.58L248.696 31.4077L258.282 39.3336L257.313 40.5059L253.131 37.0482L244.202 47.8482L242.979 46.8377Z" fill="#121212"/>
<path d="M249.874 52.7418L260.819 41.7174L267.709 48.5577L266.637 49.6372L260.873 43.9141L257.088 47.7267L261.934 52.5378L260.862 53.6173L256.016 48.8062L252.071 52.7796L257.836 58.5027L256.765 59.5822L249.874 52.7418Z" fill="#121212"/>
<path d="M258.58 61.6292L270.37 51.5143L271.402 52.7179L260.767 61.8424L265.571 67.4428L264.417 68.4332L258.58 61.6292Z" fill="#121212"/>
<path d="M265.344 69.6679L277.939 60.5756L283.622 68.448L282.389 69.3383L277.634 62.7517L273.278 65.8961L277.275 71.433L276.042 72.3233L272.045 66.7864L267.505 70.0634L272.259 76.6499L271.026 77.5402L265.344 69.6679Z" fill="#121212"/>
<path d="M275.294 85.1632C274.745 84.218 274.415 83.2702 274.304 82.3201C274.193 81.3699 274.287 80.4504 274.586 79.5616C274.888 78.679 275.387 77.8485 276.083 77.0702C276.785 76.2882 277.667 75.5884 278.731 74.9707C280.136 74.1543 281.502 73.6852 282.829 73.5634C284.165 73.4443 285.388 73.6738 286.497 74.252C287.607 74.8303 288.533 75.7599 289.278 77.041C290.108 78.4714 290.448 79.8294 290.297 81.1151C290.155 82.4033 289.624 83.5516 288.705 84.5599L287.567 83.3744C288.218 82.6052 288.594 81.7422 288.695 80.7852C288.8 79.8344 288.563 78.8615 287.985 77.8664C287.381 76.8118 286.637 76.0753 285.754 75.657C284.877 75.235 283.906 75.096 282.842 75.24C281.788 75.3866 280.699 75.7819 279.576 76.4259C278.453 77.0699 277.567 77.8135 276.917 78.6566C276.277 79.5023 275.919 80.4175 275.842 81.402C275.771 82.3829 276.038 83.4006 276.642 84.4552C277.202 85.4191 277.851 86.1068 278.589 86.5182C279.327 86.9296 280.138 87.0946 281.022 87.0135C281.91 86.9385 282.843 86.6464 283.82 86.1373L282.021 83.0403L283.196 82.3575L285.829 86.8911C285.697 86.9929 285.55 87.0907 285.389 87.1846C285.237 87.2811 285.127 87.3493 285.058 87.389C283.845 88.0934 282.634 88.5061 281.423 88.627C280.219 88.7444 279.085 88.5254 278.022 87.97C276.97 87.4172 276.06 86.4817 275.294 85.1632Z" fill="#121212"/>
<path d="M280.226 93.471L294.418 87.1537L296.857 92.6334C296.918 92.7714 296.98 92.9287 297.043 93.1054C297.116 93.2857 297.175 93.4719 297.221 93.6639C297.44 94.4561 297.46 95.1991 297.28 95.8929C297.111 96.5904 296.779 97.2065 296.285 97.7413C295.793 98.2827 295.177 98.7187 294.434 99.0491C293.363 99.5259 292.308 99.6572 291.268 99.4431C290.228 99.229 289.372 98.6417 288.7 97.6811L288.358 97.2311L286.261 92.5201L280.87 94.9198L280.226 93.471ZM284.051 102.065L288.58 96.6953L289.731 97.8481L284.792 103.731L284.051 102.065ZM287.641 91.9059L289.418 95.8974C289.471 96.0157 289.539 96.1508 289.622 96.3026C289.705 96.4544 289.797 96.5986 289.897 96.7351C290.219 97.1745 290.596 97.4828 291.029 97.66C291.465 97.8438 291.921 97.9206 292.395 97.8904C292.873 97.8667 293.332 97.7569 293.772 97.561C294.212 97.365 294.601 97.0975 294.938 96.7585C295.285 96.4231 295.535 96.0319 295.691 95.585C295.849 95.1445 295.872 94.6578 295.761 94.1248C295.727 93.9591 295.678 93.7959 295.614 93.6353C295.557 93.4717 295.502 93.3308 295.45 93.2126L293.673 89.2211L287.641 91.9059Z" fill="#121212"/>
<path d="M285.221 104.767L301.65 104.937L302.315 106.933L289.265 116.917L288.744 115.351L301.039 105.903L301.237 106.496L285.742 106.333L285.221 104.767ZM289.546 105.84L290.959 105.37L293.494 112.985L292.081 113.455L289.546 105.84Z" fill="#121212"/>
<path d="M289.805 118.656L305.006 115.455L305.306 116.88L293.781 125.547L307.816 128.798L308.121 130.244L292.93 133.443L292.619 131.965L304.347 129.496L291.468 126.552L291.257 125.549L301.857 117.672L290.119 120.145L289.805 118.656Z" fill="#121212"/>
</svg>
